{
    "accessors" : [
        {
            "bufferView" : 0, 
            "componentType" : 5123, 
            "count" : 38157, 
            "max" : [
                17511
            ], 
            "min" : [
                0
            ], 
            "type" : "SCALAR"
        }, 
        {
            "bufferView" : 1, 
            "componentType" : 5126, 
            "count" : 17512, 
            "max" : [
                1.0, 
                12.500354766845703, 
                1.0003151893615723
            ], 
            "min" : [
                -1.0, 
                -0.31213995814323425, 
                -1.0
            ], 
            "type" : "VEC3"
        }, 
        {
            "bufferView" : 2, 
            "componentType" : 5126, 
            "count" : 17512, 
            "max" : [
                0.999969482421875, 
                1.0, 
                0.999969482421875
            ], 
            "min" : [
                -0.99993896484375, 
                -0.99993896484375, 
                -0.999969482421875
            ], 
            "type" : "VEC3"
        }, 
        {
            "bufferView" : 3, 
            "componentType" : 5126, 
            "count" : 17512, 
            "max" : [
                0.9954695105552673, 
                0.9797850772738457
            ], 
            "min" : [
                0.029296183958649635, 
                0.0075688958168029785
            ], 
            "type" : "VEC2"
        }
    ], 
    "asset" : {
        "generator" : "Khronos Blender glTF 2.0 exporter", 
        "version" : "2.0"
    }, 
    "bufferViews" : [
        {
            "buffer" : 0, 
            "byteLength" : 76314, 
            "byteOffset" : 0, 
            "target" : 34963
        }, 
        {
            "buffer" : 0, 
            "byteLength" : 210144, 
            "byteOffset" : 76316, 
            "target" : 34962
        }, 
        {
            "buffer" : 0, 
            "byteLength" : 210144, 
            "byteOffset" : 286460, 
            "target" : 34962
        }, 
        {
            "buffer" : 0, 
            "byteLength" : 140096, 
            "byteOffset" : 496604, 
            "target" : 34962
        }
    ], 
    "buffers" : [
        {
            "byteLength" : 636700, 
            "uri" : "data:application/octet-stream;base64,"
        }
    ], 
    "images" : [
        {
            "uri" : "data:image/png;base64,"
        }
    ], 
    "materials" : [
        {
            "name" : "Material.001", 
            "pbrMetallicRoughness" : {
                "baseColorFactor" : [
                    0.6400000190734865, 
                    0.6400000190734865, 
                    0.6400000190734865, 
                    1.0
                ], 
                "baseColorTexture" : {
                    "index" : 0
                }, 
                "metallicFactor" : 0.0
            }
        }
    ], 
    "meshes" : [
        {
            "name" : "Plane.005", 
            "primitives" : [
                {
                    "attributes" : {
                        "NORMAL" : 2, 
                        "POSITION" : 1, 
                        "TEXCOORD_0" : 3
                    }, 
                    "indices" : 0, 
                    "material" : 0
                }
            ]
        }
    ], 
    "nodes" : [
        {
            "mesh" : 0, 
            "name" : "Plane.002", 
            "scale" : [
                19.89066505432129, 
                1.9890660047531128, 
                19.89066505432129
            ], 
            "translation" : [
                0.043531954288482666, 
                0.03653073310852051, 
                -0.04286360740661621
            ]
        }
    ], 
    "samplers" : [
        {}
    ], 
    "scene" : 0, 
    "scenes" : [
        {
            "name" : "Scene", 
            "nodes" : [
                0
            ]
        }
    ], 
    "textures" : [
        {
            "sampler" : 0, 
            "source" : 0
        }
    ]
}
